ply
format ascii 1.0
comment Created by Blender 2.76 (sub 0) - www.blender.org, source file: 'guardspot.blend'
element vertex 20
property float x
property float y
property float z
property float s
property float t
property uchar red
property uchar green
property uchar blue
element face 12
property list uchar uint vertex_indices
end_header
-0.500000 -0.400000 0.500000 0.476424 0.476195 255 0 0
-0.500000 -0.400000 -0.500000 0.476424 0.000114 255 0 0
-0.500000 -0.500000 -0.500000 0.524033 0.000114 255 0 0
0.500000 -0.400000 0.500000 0.476196 0.523804 255 0 0
0.500000 -0.400000 -0.500000 0.476196 0.999886 255 0 0
-0.500000 -0.400000 -0.500000 0.000114 0.999886 255 0 0
0.500000 -0.500000 0.500000 0.524261 0.476195 255 0 0
0.500000 -0.500000 -0.500000 0.524261 0.000114 255 0 0
0.500000 -0.400000 -0.500000 0.571869 0.000114 255 0 0
-0.500000 -0.500000 0.500000 0.000114 0.476196 255 0 0
-0.500000 -0.500000 -0.500000 0.000114 0.000114 255 0 0
0.500000 -0.500000 -0.500000 0.476196 0.000114 255 0 0
-0.500000 -0.400000 -0.500000 0.476424 0.476423 255 0 0
0.500000 -0.400000 -0.500000 0.952505 0.476423 255 0 0
0.500000 -0.500000 -0.500000 0.952505 0.524032 255 0 0
-0.500000 -0.400000 0.500000 0.000114 0.523804 255 0 0
-0.500000 -0.500000 0.500000 0.524033 0.476195 255 0 0
0.500000 -0.400000 0.500000 0.571869 0.476195 255 0 0
0.500000 -0.500000 0.500000 0.476196 0.476196 255 0 0
-0.500000 -0.500000 -0.500000 0.476424 0.524032 255 0 0
3 0 1 2
3 3 4 5
3 6 7 8
3 9 10 11
3 12 13 14
3 3 15 9
3 16 0 2
3 15 3 5
3 17 6 8
3 18 9 11
3 19 12 14
3 18 3 9
